<?xml version="1.0" encoding="utf-8"?>
<!-- Generator: Adobe Illustrator 24.2.1, SVG Export Plug-In . SVG Version: 6.00 Build 0)  -->
<svg version="1.1" id="Layer_1" xmlns="http://www.w3.org/2000/svg" xmlns:xlink="http://www.w3.org/1999/xlink" x="0px" y="0px"
	 viewBox="0 0 2391.5 650" style="enable-background:new 0 0 2391.5 650;" xml:space="preserve">
<style type="text/css">
	.st0{clip-path:url(#SVGID_2_);}
	.st1{fill:#FFFFFF;}
	.st2{fill:#744C9E;}
	.st3{opacity:0.2;enable-background:new    ;}
	.st4{fill:#FF4785;}
	.st5{fill:#865CD6;}
</style>
<g>
	<g>
		<defs>
			<rect id="SVGID_1_" width="2391.5" height="650"/>
		</defs>
		<clipPath id="SVGID_2_">
			<use xlink:href="#SVGID_1_"  style="overflow:visible;"/>
		</clipPath>
		<g class="st0">
			<rect class="st1" width="1740" height="650"/>
			<path class="st2" d="M315,9C141,9,0,150,0,324s141,315,315,315s315-141,315-315S489,9,315,9z M67.7,327.3l244,244
				C177.7,569.6,69.4,461.3,67.7,327.3z M370.4,565.1L73.9,268.6c25.1-110,123.6-192,241.1-192c82.2,0,155,40.1,200,101.8
				l-34.2,30.2c-36.5-52.3-97.1-86.6-165.7-86.6c-87.4,0-161.8,55.5-189.9,133.2l258.7,258.7c62.8-22.7,111.1-75.8,127.3-141.4
				H403.8V324h113.1l0,0h45.4l0,0C562.4,441.6,480.3,540,370.4,565.1z"/>
			<path class="st3" d="M757.7,320.8h32.4v8.2h-32.4v35.3h-8.9V329H717v-8.2h31.8v-34.1h8.9V320.8z"/>
			<path class="st3" d="M1634.9,320.8h32.4v8.2h-32.4v35.3h-8.9V329h-31.8v-8.2h31.8v-34.1h8.9V320.8z"/>
			<g>
				<path class="st4" d="M957.3,591.8L937.7,68c-0.7-17.3,12.6-32,29.9-33l445.2-27.8c17.6-1.1,32.7,12.3,33.8,29.9
					c0,0.7,0.1,1.3,0.1,2v570.8c0,17.6-14.3,31.9-31.9,31.9c-0.5,0-0.9,0-1.4,0l-425.6-19.1C971.2,621.7,958,608.4,957.3,591.8z"/>
				<path class="st1" d="M1313.5,85l3-73.2l61.1-4.8l2.6,75.5c0.1,2.6-2,4.8-4.6,4.9c-1.1,0-2.2-0.3-3.1-1l-23.6-18.6L1321.1,89
					c-2.1,1.6-5.1,1.2-6.7-0.9C1313.8,87.2,1313.5,86.1,1313.5,85z M1235.3,246.2c0,12.4,83.6,6.5,94.8-2.3
					c0-84.5-45.3-129-128.3-129s-129.5,45.1-129.5,112.8c0,117.9,158.9,120.1,158.9,184.4c0,18-8.8,28.8-28.3,28.8
					c-25.3,0-35.3-12.9-34.1-56.9c0-9.5-96.5-12.5-99.5,0c-7.5,106.6,58.9,137.3,134.8,137.3c73.6,0,131.3-39.3,131.3-110.3
					c0-126.3-161.3-122.9-161.3-185.5c0-25.4,18.8-28.8,30-28.8C1215.9,196.8,1237.1,198.8,1235.3,246.2z"/>
			</g>
			<g>
				<path class="st5" d="M2069.3,640.9c-42.7,0-84.1-8.4-123.1-24.9c-37.7-15.9-71.5-38.7-100.5-67.8s-51.8-62.8-67.8-100.5
					c-16.5-39-24.9-80.4-24.9-123.1c0-42.7,8.4-84.1,24.9-123.1c15.9-37.7,38.7-71.5,67.8-100.5s62.8-51.8,100.5-67.8
					c39-16.5,80.4-24.9,123.1-24.9s84.1,8.4,123.1,24.9c37.7,15.9,71.5,38.7,100.5,67.8s51.8,62.8,67.8,100.5
					c16.5,39,24.9,80.4,24.9,123.1s-8.4,84.1-24.9,123.1c-15.9,37.7-38.7,71.5-67.8,100.5s-62.8,51.8-100.5,67.8
					C2153.4,632.6,2112,640.9,2069.3,640.9z M2069.3,114.3c-116,0-210.4,94.4-210.4,210.4c0,116,94.4,210.4,210.4,210.4
					s210.4-94.4,210.4-210.4C2279.7,208.7,2185.3,114.3,2069.3,114.3z"/>
			</g>
		</g>
	</g>
</g>
</svg>
